<?xml version="1.0" standalone="no"?>
<!DOCTYPE svg PUBLIC "-//W3C//DTD SVG 20010904//EN"
 "http://www.w3.org/TR/2001/REC-SVG-20010904/DTD/svg10.dtd">
<svg version="1.0" xmlns="http://www.w3.org/2000/svg"
 width="22.000000pt" height="20.000000pt" viewBox="0 0 22.000000 20.000000"
 preserveAspectRatio="xMidYMid meet">

<g transform="translate(0.000000,20.000000) scale(0.100000,-0.100000)"
fill="#000000" stroke="none">
<path d="M13 185 c10 -7 24 -35 31 -62 l12 -48 71 -3 c70 -3 71 -3 77 25 4 15
9 36 12 46 5 15 -3 17 -80 17 -76 0 -85 2 -91 20 -4 12 -15 20 -28 20 -21 -1
-21 -1 -4 -15z m183 -57 c-3 -13 -6 -29 -6 -35 0 -9 -19 -13 -59 -13 -61 0
-71 7 -71 51 0 17 8 19 71 19 69 0 71 -1 65 -22z"/>
<path d="M54 35 c-4 -9 -2 -21 4 -27 15 -15 44 -1 40 19 -4 23 -36 29 -44 8z
m31 -5 c3 -5 -1 -10 -10 -10 -9 0 -13 5 -10 10 3 6 8 10 10 10 2 0 7 -4 10
-10z"/>
<path d="M152 28 c2 -15 10 -23 23 -23 30 0 27 39 -3 43 -20 3 -23 0 -20 -20z
m33 2 c3 -5 -1 -10 -10 -10 -9 0 -13 5 -10 10 3 6 8 10 10 10 2 0 7 -4 10 -10z"/>
</g>
</svg>
