   <svg version="1.0" xmlns="http://www.w3.org/2000/svg"
                 width="20.000000pt" height="20.000000pt" viewBox="0 0 20.000000 20.000000"
                 preserveAspectRatio="xMidYMid meet">
                
                <g transform="translate(0.000000,20.000000) scale(0.100000,-0.100000)"
                fill="#000000" stroke="none">
                <path d="M20 180 c-11 -11 -20 -31 -20 -44 0 -24 82 -136 100 -136 18 0 100
                112 100 136 0 46 -59 81 -88 52 -9 -9 -15 -9 -24 0 -18 18 -45 15 -68 -8z
                m148 -13 c22 -15 13 -53 -24 -100 -20 -26 -40 -47 -44 -47 -4 0 -24 21 -44 47
                -36 47 -45 80 -25 100 12 12 118 12 137 0z"/>
                </g>
                </svg>
