<?xml version="1.0" standalone="no"?>
<!DOCTYPE svg PUBLIC "-//W3C//DTD SVG 20010904//EN"
 "http://www.w3.org/TR/2001/REC-SVG-20010904/DTD/svg10.dtd">
<svg version="1.0" xmlns="http://www.w3.org/2000/svg"
 width="20.000000pt" height="20.000000pt" viewBox="0 0 20.000000 20.000000"
 preserveAspectRatio="xMidYMid meet">

<g transform="translate(0.000000,20.000000) scale(0.100000,-0.100000)"
fill="#000000" stroke="none">
<path d="M25 175 c-15 -14 -25 -36 -25 -53 0 -51 66 -97 107 -74 14 9 24 5 50
-20 43 -41 56 -28 15 15 -25 26 -29 36 -20 50 5 10 7 29 4 43 -16 63 -87 84
-131 39z m97 -12 c22 -20 23 -61 1 -85 -34 -38 -103 -11 -103 40 0 54 62 81
102 45z"/>
</g>
</svg>
