<?xml version="1.0" standalone="no"?>
<!DOCTYPE svg PUBLIC "-//W3C//DTD SVG 20010904//EN"
 "http://www.w3.org/TR/2001/REC-SVG-20010904/DTD/svg10.dtd">
<svg version="1.0" xmlns="http://www.w3.org/2000/svg"
 width="20.000000pt" height="20.000000pt" viewBox="0 0 20.000000 20.000000"
 preserveAspectRatio="xMidYMid meet">

<g transform="translate(0.000000,20.000000) scale(0.100000,-0.100000)"
fill="#000000" stroke="none">
<path d="M60 180 c-23 -23 -24 -33 -9 -61 8 -16 5 -26 -20 -55 -31 -34 -40
-64 -21 -64 6 0 10 8 10 18 0 30 42 62 81 62 38 0 79 -33 79 -63 0 -9 5 -17
10 -17 19 0 10 30 -21 64 -25 29 -28 39 -20 55 6 11 11 24 11 30 0 18 -39 51
-60 51 -11 0 -29 -9 -40 -20z m75 -34 c0 -52 -63 -62 -73 -12 -7 33 6 47 40
44 29 -3 33 -7 33 -32z"/>
</g>
</svg>
