<svg xmlns="http://www.w3.org/2000/svg" xmlns:xlink="http://www.w3.org/1999/xlink" width="16px" height="16px" viewBox="0 0 16 16" version="1.1">
<g id="surface1">
<path style=" stroke:none;fill-rule:nonzero;fill:rgb(0%,0%,0%);fill-opacity:1;" d="M 16 8 C 16 12.28125 12.417969 15.75 8 15.75 C 7.175781 15.75 6.378906 15.628906 5.632812 15.402344 C 5.957031 14.886719 6.445312 14.042969 6.625 13.371094 C 6.722656 13.007812 7.121094 11.527344 7.121094 11.527344 C 7.382812 12.007812 8.144531 12.417969 8.953125 12.417969 C 11.367188 12.417969 13.105469 10.269531 13.105469 7.597656 C 13.105469 5.039062 10.949219 3.121094 8.175781 3.121094 C 4.722656 3.121094 2.886719 5.367188 2.886719 7.8125 C 2.886719 8.949219 3.511719 10.367188 4.507812 10.816406 C 4.660156 10.882812 4.742188 10.851562 4.777344 10.710938 C 4.804688 10.605469 4.9375 10.078125 5 9.835938 C 5.019531 9.757812 5.007812 9.6875 4.945312 9.613281 C 4.621094 9.222656 4.355469 8.507812 4.355469 7.84375 C 4.355469 6.132812 5.691406 4.480469 7.96875 4.480469 C 9.933594 4.480469 11.308594 5.777344 11.308594 7.632812 C 11.308594 9.730469 10.214844 11.183594 8.792969 11.183594 C 8.007812 11.183594 7.417969 10.554688 7.609375 9.785156 C 7.835938 8.863281 8.269531 7.867188 8.269531 7.203125 C 8.269531 6.609375 7.941406 6.113281 7.257812 6.113281 C 6.453125 6.113281 5.808594 6.914062 5.808594 7.992188 C 5.808594 8.679688 6.046875 9.144531 6.046875 9.144531 C 6.046875 9.144531 5.257812 12.386719 5.113281 12.992188 C 4.953125 13.664062 5.015625 14.605469 5.082031 15.21875 C 2.109375 14.089844 0 11.285156 0 8 C 0 3.71875 3.582031 0.25 8 0.25 C 12.417969 0.25 16 3.71875 16 8 Z M 16 8 "/>
</g>
</svg>
